<?xml version="1.0" standalone="no"?>
<!DOCTYPE svg PUBLIC "-//W3C//DTD SVG 20010904//EN"
 "http://www.w3.org/TR/2001/REC-SVG-20010904/DTD/svg10.dtd">
<svg version="1.0" xmlns="http://www.w3.org/2000/svg"
 width="225.000000pt" height="225.000000pt" viewBox="0 0 225.000000 225.000000"
 preserveAspectRatio="xMidYMid meet">
<metadata>
Created by potrace 1.14, written by Peter Selinger 2001-2017
</metadata>
<g transform="translate(0.000000,225.000000) scale(0.100000,-0.100000)"
fill="#000000" stroke="none">
<path d="M100 1810 l0 -340 340 0 340 0 0 340 0 340 -340 0 -340 0 0 -340z
m585 0 l0 -245 -245 0 -245 0 -3 235 c-1 129 0 240 3 247 3 11 56 13 247 11
l243 -3 0 -245z"/>
<path d="M298 1805 l3 -146 142 3 142 3 3 143 3 142 -148 0 -148 0 3 -145z"/>
<path d="M980 2100 l0 -50 -50 0 -50 0 0 -95 0 -95 50 0 50 0 0 -50 0 -50 -50
0 -50 0 0 -195 0 -195 -95 0 -95 0 0 -50 0 -50 95 0 95 0 0 -44 0 -45 48 -3
47 -3 3 -97 3 -98 -51 0 -50 0 0 -145 0 -145 50 0 50 0 0 -100 0 -100 -50 0
-50 0 0 -50 0 -50 95 0 95 0 0 50 0 50 100 0 100 0 0 50 0 50 50 0 50 0 0
-100 0 -100 -50 0 -50 0 0 -45 0 -45 50 0 50 0 0 -50 0 -50 50 0 50 0 0 50 0
50 45 0 45 0 0 45 0 45 50 0 50 0 0 -45 0 -45 50 0 50 0 0 -55 0 -55 -50 0
-50 0 0 -45 0 -45 145 0 145 0 0 45 0 45 -45 0 -45 0 0 55 0 55 45 0 45 0 0
45 0 45 -45 0 -45 0 0 50 0 50 50 0 50 0 0 -50 0 -50 50 0 50 0 0 -44 0 -44
45 -4 45 -3 0 242 0 243 -44 0 -45 0 -3 -47 -3 -48 -47 -3 -48 -3 0 -45 0 -44
-50 0 -50 0 0 45 0 45 -50 0 -50 0 0 50 0 50 50 0 50 0 0 50 0 50 -100 0 -100
0 0 100 0 100 100 0 100 0 0 45 0 45 -295 0 -295 0 0 -45 0 -45 100 0 100 0 0
-50 0 -50 -100 0 -100 0 0 45 0 45 -44 0 -44 0 -4 -45 -3 -45 47 0 48 0 0 -50
0 -50 -145 0 -145 0 0 50 0 50 48 0 47 0 -3 145 -3 145 50 0 51 0 0 50 0 50
100 0 100 0 0 195 0 195 -50 0 -50 0 0 50 0 50 50 0 50 0 0 45 0 45 -50 0 -50
0 0 -45 0 -45 -45 0 -45 0 0 -50 0 -50 45 0 45 0 0 -50 0 -50 -45 0 -45 0 0
-45 0 -45 45 0 45 0 0 -50 0 -50 -50 0 -50 0 0 45 0 45 -45 0 -45 0 0 -45 0
-45 -50 0 -50 0 0 145 0 145 45 0 44 0 3 195 3 195 -47 0 -48 0 0 -50z m0
-780 l0 -50 -50 0 -50 0 0 50 0 50 50 0 50 0 0 -50z m680 -585 l0 -145 50 0
50 0 0 -100 0 -100 -50 0 -50 0 0 50 0 50 -95 0 -95 0 0 50 0 50 45 0 45 0 0
95 0 95 -45 0 -45 0 0 -50 0 -51 -147 3 -148 3 -3 48 -3 47 50 0 51 0 0 50 0
50 195 0 195 0 0 -145z"/>
<path d="M1178 2055 l3 -95 45 0 44 0 0 50 0 50 50 0 50 0 0 45 0 45 -97 0
-98 0 3 -95z"/>
<path d="M1470 1810 l0 -340 340 0 340 0 0 340 0 340 -340 0 -340 0 0 -340z
m585 0 l0 -245 -245 0 -245 0 -3 235 c-1 129 0 240 3 247 3 11 56 13 247 11
l243 -3 0 -245z"/>
<path d="M1662 1808 l3 -143 143 -3 142 -3 0 146 0 145 -145 0 -146 0 3 -142z"/>
<path d="M100 1272 l0 -97 45 3 45 4 0 44 0 44 50 0 50 0 0 50 0 50 -95 0 -95
0 0 -98z"/>
<path d="M390 1320 l0 -50 50 0 50 0 0 50 0 50 -50 0 -50 0 0 -50z"/>
<path d="M1470 1320 l0 -50 145 0 145 0 0 50 0 50 -145 0 -145 0 0 -50z"/>
<path d="M1860 1320 l0 -50 95 0 95 0 0 50 0 50 -95 0 -95 0 0 -50z"/>
<path d="M590 1225 l0 -45 45 0 45 0 0 45 0 45 -45 0 -45 0 0 -45z"/>
<path d="M2060 1226 l0 -44 45 -4 45 -3 0 47 0 48 -45 0 -45 0 0 -44z"/>
<path d="M390 1125 l0 -45 50 0 50 0 0 45 0 45 -50 0 -50 0 0 -45z"/>
<path d="M690 1125 l0 -45 45 0 45 0 0 45 0 45 -45 0 -45 0 0 -45z"/>
<path d="M1960 1125 l0 -45 45 0 45 0 0 45 0 45 -45 0 -45 0 0 -45z"/>
<path d="M200 1025 l0 -45 -50 0 -50 0 0 -50 0 -50 95 0 95 0 0 50 0 50 50 0
50 0 0 -50 0 -50 50 0 50 0 0 50 0 50 50 0 50 0 0 -50 0 -50 95 0 95 0 0 50 0
50 -50 0 -50 0 0 45 0 45 -95 0 -95 0 0 -45 0 -45 -50 0 -50 0 0 45 0 45 -95
0 -95 0 0 -45z"/>
<path d="M1960 930 l0 -50 95 0 95 0 0 50 0 50 -95 0 -95 0 0 -50z"/>
<path d="M100 440 l0 -340 340 0 340 0 0 340 0 340 -340 0 -340 0 0 -340z
m585 0 l0 -245 -245 0 -245 0 -3 235 c-1 129 0 240 3 247 3 11 56 13 247 11
l243 -3 0 -245z"/>
<path d="M300 445 l0 -145 145 0 146 0 -3 143 -3 142 -142 3 -143 3 0 -146z"/>
<path d="M880 195 l0 -95 98 0 97 0 -3 45 -4 45 -44 0 -44 0 0 50 0 50 -50 0
-50 0 0 -95z"/>
<path d="M1178 195 l-3 -95 98 0 97 0 0 45 0 45 -50 0 -50 0 0 50 0 50 -44 0
-45 0 -3 -95z"/>
<path d="M1570 245 l0 -45 45 0 45 0 0 45 0 45 -45 0 -45 0 0 -45z"/>
<path d="M1960 245 l0 -45 45 0 45 0 0 45 0 45 -45 0 -45 0 0 -45z"/>
</g>
</svg>
