<svg width="16" height="16" viewBox="0 0 16 16" fill="none" xmlns="http://www.w3.org/2000/svg">
<rect width="16" height="16" fill="white"/>
<path d="M3.33333 5.33335H12.6667H3.33333ZM3.33333 5.33335C2.97971 5.33335 2.64057 5.19288 2.39052 4.94283C2.14048 4.69278 2 4.35364 2 4.00002C2 3.6464 2.14048 3.30726 2.39052 3.05721C2.64057 2.80716 2.97971 2.66669 3.33333 2.66669H12.6667C13.0203 2.66669 13.3594 2.80716 13.6095 3.05721C13.8595 3.30726 14 3.6464 14 4.00002C14 4.35364 13.8595 4.69278 13.6095 4.94283C13.3594 5.19288 13.0203 5.33335 12.6667 5.33335H3.33333ZM3.33333 5.33335V12C3.33333 12.3536 3.47381 12.6928 3.72386 12.9428C3.97391 13.1929 4.31304 13.3334 4.66667 13.3334H11.3333C11.687 13.3334 12.0261 13.1929 12.2761 12.9428C12.5262 12.6928 12.6667 12.3536 12.6667 12V5.33335H3.33333ZM6.66667 8.00002H9.33333H6.66667Z" fill="#C4C4C4"/>
</svg>
