<svg width="21" height="21" viewBox="0 0 21 21" fill="none" xmlns="http://www.w3.org/2000/svg">
<path d="M4.375 7H16.625H4.375ZM4.375 7C3.91087 7 3.46575 6.81563 3.13756 6.48744C2.80937 6.15925 2.625 5.71413 2.625 5.25C2.625 4.78587 2.80937 4.34075 3.13756 4.01256C3.46575 3.68437 3.91087 3.5 4.375 3.5H16.625C17.0891 3.5 17.5342 3.68437 17.8624 4.01256C18.1906 4.34075 18.375 4.78587 18.375 5.25C18.375 5.71413 18.1906 6.15925 17.8624 6.48744C17.5342 6.81563 17.0891 7 16.625 7H4.375ZM4.375 7V15.75C4.375 16.2141 4.55937 16.6592 4.88756 16.9874C5.21575 17.3156 5.66087 17.5 6.125 17.5H14.875C15.3391 17.5 15.7842 17.3156 16.1124 16.9874C16.4406 16.6592 16.625 16.2141 16.625 15.75V7H4.375ZM8.75 10.5H12.25H8.75Z" fill="#6A6A6A"/>
</svg>
